Coordinates
version=1
nRows=23
nColumns=28
inDegrees=yes

Units are S.I. units (second, meters, Newtons, ...)
Angles are in degrees.

endheader
time	pelvis_tilt	pelvis_list	pelvis_rotation	pelvis_tx	pelvis_ty	pelvis_tz	hip_flexion_r	hip_adduction_r	hip_rotation_r	knee_angle_r	ankle_angle_r	subtalar_angle_r	mtp_angle_r	hip_flexion_l	hip_adduction_l	hip_rotation_l	knee_angle_l	socket_flexion	socket_adduction	socket_rotation	socket_tx	socket_ty	socket_tz	foot_flex	lumbar_extension	lumbar_bending	lumbar_rotation
      0.31666667	     -0.33582461	      0.28651484	     -1.69838996	     -0.46035387	      1.02838338	      0.29154963	     17.57852568	     -1.10508965	     -4.11034216	    -66.48210978	      4.38759159	    -15.34840268	     -0.14970581	     -1.33205231	      1.47213838	     10.50302208	      8.21430368	      9.68158071	      0.00000000	      0.00000000	      0.00000000	      0.00000000	      0.00000000	     -0.41233515	    -10.05996027	     -3.76012652	      1.72533948
      0.32083333	     -0.30523637	      0.07810999	     -1.49842027	     -0.45495138	      1.02891812	      0.29127236	     18.02367028	     -0.92224514	     -4.28842663	    -66.03051205	      4.79677429	    -14.96211331	     -0.08669245	     -1.75639998	      1.24165168	     10.67665181	      8.35192357	      9.69874786	      0.00000000	      0.00000000	      0.00000000	      0.00000000	      0.00000000	     -0.31516355	    -10.10499864	     -3.48163153	      1.54252164
      0.32500000	     -0.26812732	     -0.05200534	     -1.30059322	     -0.44961075	      1.02938600	      0.29102626	     18.46455122	     -0.82401307	     -4.44289925	    -65.56351621	      5.15081027	    -14.68171818	     -0.03610755	     -2.14768065	      1.09914203	     10.83324575	      8.39693573	      9.68041822	      0.00000000	      0.00000000	      0.00000000	      0.00000000	      0.00000000	     -0.16799447	    -10.15409731	     -3.29154980	      1.38842027
      0.32916667	     -0.05213302	     -0.33377131	     -0.97969701	     -0.44424030	      1.03020889	      0.29050016	     18.62070341	     -0.64181024	     -4.78859875	    -64.94577837	      5.72276158	    -13.86804795	     -0.11492259	     -2.73551740	      0.79303788	     11.11154493	      8.47145849	      9.65648559	      0.00000000	      0.00000000	      0.00000000	      0.00000000	      0.00000000	     -0.09622871	    -10.42362958	     -2.86969152	      0.93800297
      0.33333333	     -0.01693265	     -0.51709050	     -0.78893372	     -0.43889707	      1.03066943	      0.29028621	     19.02288278	     -0.47466088	     -4.94459296	    -64.36737987	      6.12431869	    -13.66645103	     -0.14441158	     -3.13469567	      0.58076539	     11.26071148	      8.54934565	      9.64547333	      0.00000000	      0.00000000	      0.00000000	      0.00000000	      0.00000000	     -0.00417018	    -10.46754411	     -2.61934050	      0.82730853
      0.33750000	      0.00753029	     -0.61756389	     -0.63664735	     -0.43354015	      1.03103208	      0.29014867	     19.44629426	     -0.40009025	     -5.06397243	    -63.79266081	      6.39658521	    -13.56295283	     -0.14065664	     -3.51526337	      0.46574643	     11.34219804	      8.59936924	      9.62304248	      0.00000000	      0.00000000	      0.00000000	      0.00000000	      0.00000000	      0.14599401	    -10.49002442	     -2.48632511	      0.75102106
      0.34166667	      0.11098960	     -0.90852425	     -0.33621662	     -0.42817810	      1.03163121	      0.28976077	     19.68451776	     -0.17810792	     -5.39264947	    -63.03336650	      6.82466353	    -13.13266744	     -0.24398225	     -3.97876243	      0.12219618	     11.61956369	      8.68195346	      9.60339991	      0.00000000	      0.00000000	      0.00000000	      0.00000000	      0.00000000	      0.23616732	    -10.61061520	     -2.08490855	      0.42756553
      0.34583333	      0.15841630	     -1.04201851	     -0.14992402	     -0.42289002	      1.03196066	      0.28954212	     20.05731994	     -0.09369731	     -5.57013763	    -62.40023506	      7.19236463	    -13.04146747	     -0.28842828	     -4.37363719	     -0.03629638	     11.74685652	      8.73773431	      9.60125852	      0.00000000	      0.00000000	      0.00000000	      0.00000000	      0.00000000	      0.37327437	    -10.66620641	     -1.87718696	      0.30331279
      0.35000000	      0.33438979	     -1.25333188	      0.16914174	     -0.41759408	      1.03256289	      0.28910120	     20.20132011	      0.01854010	     -5.90924921	    -61.59408573	      7.50760950	    -12.73093198	     -0.63370229	     -4.88642048	     -0.29025399	     12.00879215	      8.77348939	      9.56898594	      0.00000000	      0.00000000	      0.00000000	      0.00000000	      0.00000000	      0.46997432	    -10.87257760	     -1.54780913	     -0.09501325
      0.35416667	      0.35824646	     -1.22561849	      0.22450328	     -0.41270640	      1.03275596	      0.28912387	     20.68014014	     -0.03355726	     -5.93840248	    -60.99684362	      7.60900840	    -12.74190937	     -0.63887755	     -5.16402049	     -0.25452247	     12.00865340	      8.61483237	      9.41839756	      0.00000000	      0.00000000	      0.00000000	      0.00000000	      0.00000000	      0.52751369	    -10.97275230	     -1.57063767	     -0.10372989
      0.35833333	      0.36538149	     -1.54806164	      0.52927892	     -0.40702339	      1.03311311	      0.28881744	     20.89928325	      0.25513209	     -6.24257021	    -60.02589664	      8.11805580	    -12.70813496	     -0.77557431	     -5.59751271	     -0.66391042	     12.25268062	      8.86978832	      9.52875160	      0.00000000	      0.00000000	      0.00000000	      0.00000000	      0.00000000	      0.69921400	    -10.89208766	     -1.15339101	     -0.26329444
      0.36250000	      0.50491815	     -1.72041833	      0.81674775	     -0.40179993	      1.03355620	      0.28846993	     21.06110898	      0.33006453	     -6.57083387	    -59.13562838	      8.35945878	    -12.68108569	     -1.21202919	     -6.06089039	     -0.88467162	     12.47935433	      8.90350169	      9.52075404	      0.00000000	      0.00000000	      0.00000000	      0.00000000	      0.00000000	      0.82240675	    -11.06195121	     -0.87989097	     -0.61358372
      0.36666667	      0.50731819	     -1.68780002	      0.89703419	     -0.39666954	      1.03364721	      0.28852351	     21.44817101	      0.27153474	     -6.61608389	    -58.35515871	      8.51319724	    -12.71572470	     -1.24109731	     -6.38067074	     -0.86209265	     12.47829677	      8.88808705	      9.47125275	      0.00000000	      0.00000000	      0.00000000	      0.00000000	      0.00000000	      0.92189378	    -11.06666316	     -0.92809197	     -0.63286532
      0.37083333	      0.49820315	     -1.72127239	      1.00933715	     -0.39141526	      1.03373498	      0.28853485	     21.79086853	      0.27789485	     -6.72372775	    -57.48081780	      8.74219814	    -12.78366801	     -1.28287521	     -6.70799540	     -0.91995563	     12.52069473	      8.91636149	      9.45063630	      0.00000000	      0.00000000	      0.00000000	      0.00000000	      0.00000000	      1.04934298	    -11.03824305	     -0.89259508	     -0.66449270
      0.37500000	      0.74019173	     -2.11733813	      1.44981451	     -0.38620367	      1.03437005	      0.28797858	     21.70897595	      0.57150554	     -7.25137404	    -56.32764180	      9.18565351	    -13.03322932	     -2.45605303	     -7.27214879	     -1.43059932	     12.91484751	      8.98953617	      9.44844910	      0.00000000	      0.00000000	      0.00000000	      0.00000000	      0.00000000	      1.17761298	    -11.32882210	     -0.29686338	     -1.19425732
      0.37916667	      0.71664731	     -2.06115737	      1.51383154	     -0.38113525	      1.03432965	      0.28803445	     22.08496814	      0.48147921	     -7.29986162	    -55.45475649	      9.31833723	    -13.07107147	     -2.48903533	     -7.56121615	     -1.38137426	     12.89727019	      8.99214008	      9.43673987	      0.00000000	      0.00000000	      0.00000000	      0.00000000	      0.00000000	      1.28513784	    -11.32523992	     -0.36884863	     -1.19517942
      0.38333333	      0.66752967	     -2.32153938	      1.75864966	     -0.37577557	      1.03442369	      0.28783311	     22.33455834	      0.69251170	     -7.60897250	    -54.31780695	      9.64171709	    -13.32650379	     -2.73907665	     -7.83802832	     -1.72194799	     13.10542167	      9.04587637	      9.42680718	      0.00000000	      0.00000000	      0.00000000	      0.00000000	      0.00000000	      1.46172457	    -11.22966765	     -0.02728455	     -1.25223819
      0.38750000	      0.64223159	     -2.24471327	      1.82444594	     -0.37079555	      1.03430899	      0.28790242	     22.68762168	      0.57704910	     -7.66753899	    -53.37920270	      9.74019782	    -13.38894817	     -2.79374684	     -8.11720227	     -1.65080997	     13.08173808	      9.05126461	      9.42273557	      0.00000000	      0.00000000	      0.00000000	      0.00000000	      0.00000000	      1.54832858	    -11.25254835	     -0.11848764	     -1.28682410
      0.39166667	      0.60866190	     -2.21646458	      1.91314837	     -0.36563044	      1.03420669	      0.28797885	     22.98450639	      0.51619560	     -7.77523469	    -52.34270324	      9.89558553	    -13.51288908	     -2.86714767	     -8.40575000	     -1.64611299	     13.10833767	      9.05800827	      9.40057302	      0.00000000	      0.00000000	      0.00000000	      0.00000000	      0.00000000	      1.67045063	    -11.22043666	     -0.15788486	     -1.32731478
      0.39583333	      0.72025769	     -2.64452877	      2.37280827	     -0.36040568	      1.03460310	      0.28748000	     22.91010183	      0.86587012	     -8.30413312	    -50.88463471	      9.91348727	    -14.37468139	     -3.89124214	     -8.79990716	     -2.21746307	     13.52392285	      9.10788994	      9.40051381	      0.00000000	      0.00000000	      0.00000000	      0.00000000	      0.00000000	      1.84371992	    -11.34681407	      0.44337858	     -1.87090644
      0.40000000	      0.67245694	     -2.53486952	      2.41593225	     -0.35537670	      1.03437016	      0.28760442	     23.22558969	      0.72294416	     -8.35533397	    -49.84063098	     10.07312991	    -14.43623590	     -3.94171541	     -9.06804186	     -2.11172825	     13.48975222	      9.11051368	      9.39546165	      0.00000000	      0.00000000	      0.00000000	      0.00000000	      0.00000000	      1.94315495	    -11.33838870	      0.32838263	     -1.87161047
      0.40416667	      0.61193678	     -2.47259585	      2.48174192	     -0.35029520	      1.03412213	      0.28772426	     23.51063684	      0.62988251	     -8.44357624	    -48.71858428	     10.25706043	    -14.54309499	     -4.00822763	     -9.32032638	     -2.06778623	     13.49889680	      9.11333143	      9.38415352	      0.00000000	      0.00000000	      0.00000000	      0.00000000	      0.00000000	      2.06272199	    -11.30658486	      0.24269313	     -1.87556909
      0.40833333	      0.56402198	     -2.82023579	      2.82626098	     -0.34504017	      1.03414779	      0.28737076	     23.57791448	      0.92310865	     -8.84328817	    -47.19054681	     10.34088999	    -15.19413713	     -4.70212719	     -9.55316978	     -2.53138124	     13.80955077	      9.15438306	      9.38070456	      0.00000000	      0.00000000	      0.00000000	      0.00000000	      0.00000000	      2.23129333	    -11.25430859	      0.72942388	     -2.07278944
